<?xml version="1.0" encoding="UTF-8" standalone="no"?>
<!DOCTYPE svg PUBLIC "-//W3C//DTD SVG 1.1//EN" "http://www.w3.org/Graphics/SVG/1.1/DTD/svg11.dtd">
<svg width="100%" height="100%" viewBox="0 0 2160 564" version="1.1" xmlns="http://www.w3.org/2000/svg" xmlns:xlink="http://www.w3.org/1999/xlink" xml:space="preserve" xmlns:serif="http://www.serif.com/" style="fill-rule:evenodd;clip-rule:evenodd;stroke-linejoin:round;stroke-miterlimit:2;">
    <g id="Artboard2" transform="matrix(1,0,0,0.521554,0,0)">
        <rect x="0" y="0" width="2160" height="1081" style="fill:none;"/>
        <g id="aprLogoMinimized" transform="matrix(1,0,0,1.91735,0,-506.549)">
            <g id="minimal" transform="matrix(1.14965,0,0,1.14965,-193.834,-80.9315)">
                <path d="M524.176,320.549L498.389,320.549L190.567,627.9L216.355,627.9L524.176,320.549Z" style="fill:rgb(191,49,49);"/>
                <path d="M563.447,320.549L537.66,320.549L229.838,627.9L255.626,627.9L563.447,320.549Z" style="fill:rgb(191,49,49);"/>
                <path d="M603.153,320.549L577.365,320.549L269.544,627.9L295.332,627.9L603.153,320.549Z" style="fill:rgb(191,49,49);"/>
                <g transform="matrix(1,0,0,1.92541,-8.52651e-14,-417.365)">
                    <rect x="1150.71" y="464.472" width="83.866" height="23.95" style="fill:rgb(191,49,49);"/>
                </g>
                <g transform="matrix(0.966205,0,0,1,46.8161,0)">
                    <path d="M1273.92,476.447L1311.45,527.686L1385.29,527.686L1385.29,476.447L1273.92,476.447Z" style="fill:rgb(191,49,49);"/>
                </g>
                <path d="M1275.96,320.825L1311.49,372.89L1381.41,372.89L1381.41,320.825L1275.96,320.825Z" style="fill:rgb(191,49,49);"/>
                <path d="M1379.37,527.686C1436.39,527.686 1482.61,481.465 1482.61,424.45C1482.61,367.434 1436.39,321.213 1379.37,321.213L1379.37,372.831C1407.88,372.831 1430.99,395.942 1430.99,424.45C1430.99,452.957 1407.88,476.068 1379.37,476.068L1379.37,527.686Z" style="fill:rgb(191,49,49);"/>
                <path d="M1969.43,424.45C1969.43,367.434 1923.21,321.213 1866.19,321.213C1809.18,321.213 1762.96,367.434 1762.96,424.45L1814.58,424.45C1814.58,395.942 1837.69,372.831 1866.19,372.831C1894.7,372.831 1917.81,395.942 1917.81,424.45L1969.43,424.45Z" style="fill:rgb(191,49,49);"/>
                <path d="M1762.96,524.664C1762.96,581.68 1809.18,627.9 1866.2,627.9C1923.21,627.9 1969.43,581.68 1969.43,524.664L1917.82,524.664C1917.82,553.172 1894.7,576.282 1866.2,576.282C1837.69,576.282 1814.58,553.172 1814.58,524.664L1762.96,524.664Z" style="fill:rgb(191,49,49);"/>
                <g transform="matrix(1,0,0,1.10807,0,-48.9591)">
                    <rect x="1762.96" y="424.45" width="51.446" height="100.214" style="fill:rgb(191,49,49);"/>
                </g>
                <rect x="551.707" y="372.831" width="51.446" height="255.069" style="fill:rgb(191,49,49);"/>
                <rect x="641.003" y="320.549" width="51.446" height="307.628" style="fill:rgb(191,49,49);"/>
                <rect x="641.003" y="576.358" width="208.721" height="51.446" style="fill:rgb(191,49,49);"/>
                <rect x="887.71" y="320.549" width="51.446" height="307.628" style="fill:rgb(191,49,49);"/>
                <rect x="1275.55" y="320.549" width="51.446" height="307.628" style="fill:rgb(191,49,49);"/>
                <path d="M1650.32,480.708L1598.87,480.708L1674.17,628.177L1725.61,628.177L1650.32,480.708Z" style="fill:rgb(191,49,49);"/>
                <path d="M1528.72,476.447L1560.34,527.686L1622.56,527.686L1622.56,476.447L1528.72,476.447Z" style="fill:rgb(191,49,49);"/>
                <path d="M1519.15,320.825L1554.68,372.89L1624.6,372.89L1624.6,320.825L1519.15,320.825Z" style="fill:rgb(191,49,49);"/>
                <path d="M1622.55,527.686C1679.57,527.686 1725.79,481.465 1725.79,424.45C1725.79,367.434 1679.57,321.213 1622.55,321.213L1622.55,372.831C1651.06,372.831 1674.17,395.942 1674.17,424.45C1674.17,452.957 1651.06,476.068 1622.55,476.068L1622.55,527.686Z" style="fill:rgb(191,49,49);"/>
                <rect x="1518.74" y="320.549" width="51.446" height="307.628" style="fill:rgb(191,49,49);"/>
                <rect x="887.71" y="576.358" width="208.721" height="51.446" style="fill:rgb(191,49,49);"/>
                <path d="M452.924,474.643L494.93,516.851L593.96,517.09L551.954,474.881L452.924,474.643Z" style="fill:rgb(191,49,49);"/>
                <path d="M603.153,320.549L551.831,371.871L551.831,470.902L603.153,419.579L603.153,320.549Z" style="fill:rgb(191,49,49);"/>
                <g transform="matrix(1,0,0,1.10807,0,-48.9591)">
                    <rect x="1917.84" y="424.45" width="51.591" height="102.295" style="fill:rgb(191,49,49);"/>
                </g>
            </g>
            <g transform="matrix(1.14965,0,0,1.14965,209.706,774.89)">
                <g transform="matrix(96,0,0,96,1510.64,0)">
                </g>
                <text x="0px" y="0px" style="font-family:'FuturaBT-MediumCondensed', 'Futura', sans-serif;font-stretch:condensed;font-size:96px;">R<tspan x="137.766px 280.922px 424.078px 556.922px 671.438px 809.203px 942.047px 1080.09px 1218.33px 1335.94px 1473.7px " y="0px 0px 0px 0px 0px 0px 0px 0px 0px 0px 0px ">OOF REPAIRS</tspan></text>
            </g>
            <g transform="matrix(1.14965,0,0,1.14965,2064.03,370.804)">
                <text x="0px" y="0px" style="font-family:'Futura-CondensedLight', 'Futura', sans-serif;font-weight:300;font-stretch:condensed;font-size:96px;">™</text>
            </g>
        </g>
    </g>
</svg>
