<?xml version="1.0" encoding="UTF-8" standalone="no"?><!DOCTYPE svg PUBLIC "-//W3C//DTD SVG 1.1//EN" "http://www.w3.org/Graphics/SVG/1.1/DTD/svg11.dtd"><svg width="100%" height="100%" viewBox="0 0 9000 2350" version="1.1" xmlns="http://www.w3.org/2000/svg" xmlns:xlink="http://www.w3.org/1999/xlink" xml:space="preserve" xmlns:serif="http://www.serif.com/" style="fill-rule:evenodd;clip-rule:evenodd;stroke-linejoin:round;stroke-miterlimit:2;"><rect id="Artboard2" x="0" y="0" width="9000" height="2349.16" style="fill:none;"/><g id="aprLogoMinimized"><g id="minimal"><path d="M1703.27,97.479l-123.525,-0l-1474.53,1472.27l123.53,0l1474.53,-1472.27Z" style="fill:#bf3131;"/><path d="M1891.38,97.479l-123.525,-0l-1474.53,1472.27l123.53,0l1474.53,-1472.27Z" style="fill:#bf3131;"/><path d="M2081.59,97.479l-123.53,-0l-1474.53,1472.27l123.53,0l1474.53,-1472.27Z" style="fill:#bf3131;"/><rect x="4704.5" y="846.606" width="401.735" height="220.894" style="fill:#bf3131;"/><path d="M5312.73,844.262l173.682,245.446l341.769,-0l0,-245.446l-515.451,0Z" style="fill:#bf3131;"/><path d="M5304.47,98.801l170.206,249.402l334.916,-0l0,-249.402l-505.122,-0Z" style="fill:#bf3131;"/><path d="M5799.82,1089.71c273.119,-0 494.527,-221.409 494.527,-494.522c-0,-273.119 -221.408,-494.527 -494.527,-494.527l0,247.261c136.559,0 247.266,110.707 247.266,247.266c-0,136.554 -110.707,247.261 -247.266,247.261l0,247.261Z" style="fill:#bf3131;"/><path d="M8626.33,595.186c0,-273.119 -221.403,-494.527 -494.522,-494.527c-273.118,0 -494.526,221.408 -494.526,494.527l247.266,-0c-0,-136.559 110.701,-247.266 247.26,-247.266c136.56,0 247.261,110.707 247.261,247.266l247.261,-0Z" style="fill:#bf3131;"/><path d="M7637.3,1075.23c0,273.118 221.408,494.521 494.527,494.521c273.118,0 494.522,-221.403 494.522,-494.521l-247.261,-0c-0,136.559 -110.702,247.26 -247.261,247.26c-136.559,0 -247.261,-110.701 -247.261,-247.26l-247.266,-0Z" style="fill:#bf3131;"/><rect x="7637.3" y="580.388" width="246.437" height="531.924" style="fill:#bf3131;"/><rect x="1835.15" y="347.92" width="246.437" height="1221.83" style="fill:#bf3131;"/><rect x="2262.89" y="97.479" width="246.437" height="1473.6" style="fill:#bf3131;"/><rect x="2262.89" y="1322.86" width="999.817" height="246.437" style="fill:#bf3131;"/><rect x="3444.67" y="97.479" width="246.437" height="1473.6" style="fill:#bf3131;"/><rect x="5302.51" y="97.479" width="246.437" height="1473.6" style="fill:#bf3131;"/><path d="M7097.73,864.673l-246.437,0l360.673,706.407l246.437,0l-360.673,-706.407Z" style="fill:#bf3131;"/><path d="M6515.24,844.262l151.462,245.446l298.037,-0l0,-245.446l-449.499,0Z" style="fill:#bf3131;"/><path d="M6469.4,98.801l170.206,249.402l334.917,-0l-0,-249.402l-505.123,-0Z" style="fill:#bf3131;"/><path d="M6964.71,1089.71c273.119,-0 494.527,-221.409 494.527,-494.522c-0,-273.119 -221.408,-494.527 -494.527,-494.527l0,247.261c136.56,0 247.261,110.707 247.261,247.266c0,136.554 -110.701,247.261 -247.261,247.261l0,247.261Z" style="fill:#bf3131;"/><rect x="6467.44" y="97.479" width="246.437" height="1473.6" style="fill:#bf3131;"/><rect x="3444.67" y="1322.86" width="999.817" height="246.437" style="fill:#bf3131;"/><path d="M1361.96,835.621l201.217,202.185l474.374,1.144l-201.217,-202.189l-474.374,-1.14Z" style="fill:#bf3131;"/><path d="M2081.59,97.479l-245.843,245.843l-0,474.378l245.843,-245.847l-0,-474.374Z" style="fill:#bf3131;"/><rect x="8379.21" y="580.388" width="247.132" height="542.97" style="fill:#bf3131;"/></g><g><text x="1208.96px" y="2203.6px" style="font-family:'FuturaBT-MediumCondensed', 'Futura', sans-serif;font-stretch:condensed;font-size:459.86px;">R</text><text x="1638.95px" y="2203.6px" style="font-family:'FuturaBT-MediumCondensed', 'Futura', sans-serif;font-stretch:condensed;font-size:459.86px;">O<tspan x="2094.77px 2550.59px 2957.01px 3290.46px 3748.07px 4203.44px 4522.04px 4928.92px 5335.37px 5765.34px 6185.68px 6519.12px 6924.18px 7330.63px " y="2203.6px 2203.6px 2203.6px 2203.6px 2203.6px 2203.6px 2203.6px 2203.6px 2203.6px 2203.6px 2203.6px 2203.6px 2203.6px 2203.6px ">OFING SERVICES</tspan></text></g><g><text x="8600.13px" y="444.213px" style="font-family:'Futura-CondensedLight', 'Futura', sans-serif;font-weight:300;font-stretch:condensed;font-size:459.86px;">™</text></g></g></svg>