<?xml version="1.0" encoding="UTF-8" standalone="no"?><!DOCTYPE svg PUBLIC "-//W3C//DTD SVG 1.1//EN" "http://www.w3.org/Graphics/SVG/1.1/DTD/svg11.dtd"><svg width="100%" height="100%" viewBox="0 0 2134 2134" version="1.1" xmlns="http://www.w3.org/2000/svg" xmlns:xlink="http://www.w3.org/1999/xlink" xml:space="preserve" xmlns:serif="http://www.serif.com/" style="fill-rule:evenodd;clip-rule:evenodd;stroke-linejoin:round;stroke-miterlimit:2;"><g id="mailIcon"><path d="M77.913,1256.01l0,417.991c0,26.844 21.762,48.606 48.607,48.606c272.486,0 1607.81,0 1880.29,0c26.845,0 48.607,-21.762 48.607,-48.606c0,-119.503 0,-417.991 0,-417.991l-1977.51,0Z"/><path d="M2055.42,1308.83l0,-757.211l-988.753,672.352l-988.754,-672.352l0,757.211l1977.51,0Z"/><path d="M2040.25,425.961c12.576,-8.552 18.104,-24.305 13.631,-38.841c-4.474,-14.535 -17.904,-24.453 -33.113,-24.453l-1908.21,-0c-15.208,-0 -28.638,9.918 -33.112,24.453c-4.474,14.536 1.055,30.289 13.631,38.841c259.752,176.631 973.587,662.039 973.587,662.039c-0,-0 713.835,-485.408 973.587,-662.039Z"/></g></svg>