<?xml version="1.0" encoding="UTF-8" standalone="no"?>
<!DOCTYPE svg PUBLIC "-//W3C//DTD SVG 1.1//EN" "http://www.w3.org/Graphics/SVG/1.1/DTD/svg11.dtd">
<svg width="100%" height="100%" viewBox="0 0 4096 4096" version="1.1" xmlns="http://www.w3.org/2000/svg" xmlns:xlink="http://www.w3.org/1999/xlink" xml:space="preserve" xmlns:serif="http://www.serif.com/" style="fill-rule:evenodd;clip-rule:evenodd;stroke-linejoin:round;stroke-miterlimit:2;">
    <rect id="Artboard1" x="0" y="0" width="4096" height="4096" style="fill:none;"/>
    <g id="Artboard11" serif:id="Artboard1">
        <g id="phone">
            <g transform="matrix(1.0547,0.54994,-0.54994,1.0547,1935.42,-1581.74)">
                <path d="M1757.87,1058.47C1875.31,1058.47 1987.93,1105.12 2070.97,1188.15C2154,1271.19 2200.65,1383.82 2200.65,1501.25L2200.65,1807.21C2200.65,1917.1 2111.57,2006.19 2001.68,2006.19L1336.69,2006.19C1290.43,2006.19 1252.93,1968.69 1252.93,1922.43L1252.93,1142.22C1252.93,1095.96 1290.43,1058.47 1336.69,1058.47L1757.87,1058.47Z" style="fill:rgb(246,246,246);"/>
            </g>
            <g transform="matrix(-0.841077,0.841077,-0.841077,-0.841077,4045.73,3097.49)">
                <path d="M1757.87,1058.47C1875.31,1058.47 1987.93,1105.12 2070.97,1188.15C2154,1271.19 2200.65,1383.82 2200.65,1501.25L2200.65,1807.21C2200.65,1917.1 2111.57,2006.19 2001.68,2006.19L1336.69,2006.19C1290.43,2006.19 1252.93,1968.69 1252.93,1922.43L1252.93,1142.22C1252.93,1095.96 1290.43,1058.47 1336.69,1058.47L1757.87,1058.47Z" style="fill:rgb(246,246,246);"/>
            </g>
            <g transform="matrix(0.568179,-0.832564,0.700371,0.700371,-1378.97,1570.65)">
                <path d="M3595.16,3306.93C3651.94,3298.85 3714.3,3320.24 3762.79,3364.41C3811.28,3408.59 3840,3470.19 3840,3530C3840,3591.57 3840,3654.74 3840,3707.85C3840,3786.96 3790.04,3848.01 3715.4,3860.12C3496.55,3894.29 3015.11,3964.84 2478.27,4013.6C1938.45,4062.63 1308.16,3948.2 1005.42,3882.37C904.912,3860.19 825.094,3762.72 825.094,3662.17C825.059,3604.94 825.059,3540.99 825.059,3481.65C825.059,3429.47 846.941,3383.82 885.381,3355.79C923.821,3327.76 975.295,3319.93 1027.28,3334.21C1262.45,3398.45 1679.8,3485.41 2156.03,3462.19C2613.15,3439.9 3250.45,3355.88 3595.16,3306.93Z" style="fill:rgb(246,246,246);"/>
            </g>
        </g>
    </g>
</svg>
